<svg xmlns="http://www.w3.org/2000/svg" xmlns:xlink="http://www.w3.org/1999/xlink" viewBox="0 0 295.47 342.43"><defs><style>.cls-1{fill:url(#linear-gradient);}.cls-2{fill:url(#linear-gradient-2);}.cls-3{fill:url(#linear-gradient-3);}.cls-4{fill:url(#linear-gradient-4);}.cls-5{fill:url(#linear-gradient-5);}.cls-6{fill:url(#linear-gradient-6);}</style><linearGradient id="linear-gradient" x1="-251" y1="195.82" x2="39.77" y2="195.82" gradientTransform="translate(-26.96 -26.78) rotate(-65)" gradientUnits="userSpaceOnUse"><stop offset="0" stop-color="#a0c2ef"/><stop offset="0" stop-color="#9abded"/><stop offset="0" stop-color="#4273c5"/></linearGradient><linearGradient id="linear-gradient-2" x1="-251" y1="129.09" x2="39.77" y2="129.09" gradientTransform="translate(-26.96 -26.78) rotate(-65)" gradientUnits="userSpaceOnUse"><stop offset="0" stop-color="#a0c2ef"/><stop offset="0.46" stop-color="#9ec0ee"/><stop offset="0.62" stop-color="#97bbeb"/><stop offset="0.74" stop-color="#8cb1e6"/><stop offset="0.83" stop-color="#7ba3de"/><stop offset="0.91" stop-color="#6590d4"/><stop offset="0.98" stop-color="#4a7ac9"/><stop offset="1" stop-color="#4273c5"/></linearGradient><linearGradient id="linear-gradient-3" x1="-251" y1="275.37" x2="39.77" y2="275.37" xlink:href="#linear-gradient"/><linearGradient id="linear-gradient-4" x1="-251" y1="208.64" x2="39.77" y2="208.64" xlink:href="#linear-gradient-2"/><linearGradient id="linear-gradient-5" x1="-251" y1="354.93" x2="39.77" y2="354.93" xlink:href="#linear-gradient"/><linearGradient id="linear-gradient-6" x1="-251" y1="288.2" x2="39.77" y2="288.2" xlink:href="#linear-gradient-2"/></defs><title>icon</title><g id="Layer_2" data-name="Layer 2"><g id="Layer_1-2" data-name="Layer 1"><g id="boxes"><g id="box1"><path class="cls-1" d="M25.73,274.74c1.63.76,3.89.19,6.37-1.89l110.13-92.41c5-4.17,9-12.88,9-19.37V17.31c0-3.25-1-5.34-2.66-6.1L124.58,0c1.64.76,2.65,2.86,2.65,6.1V149.87c0,6.48-4.07,15.19-9,19.36L8.07,261.64c-2.48,2.09-4.74,2.66-6.38,1.89Z"/><path class="cls-2" d="M149.57,11.65c-1.63-.76-3.89-.19-6.37,1.89L33.07,106c-5,4.17-9,12.88-9,19.36V269.09c0,3.24,1,5.33,2.66,6.1L2.65,264C1,263.22,0,261.12,0,257.88V114.11c0-6.48,4.06-15.19,9-19.36L119.16,2.34C121.65.25,123.9-.32,125.54.45Z"/></g><g id="box2"><path class="cls-3" d="M97.83,308.36c1.63.76,3.89.2,6.37-1.89l110.13-92.41c5-4.17,9-12.88,9-19.37V50.93c0-3.24-1-5.34-2.65-6.1l-24-11.21c1.64.76,2.65,2.86,2.65,6.1V183.49c0,6.48-4.07,15.19-9,19.36L80.17,295.27c-2.48,2.08-4.74,2.65-6.38,1.88Z"/><path class="cls-4" d="M221.67,45.28c-1.63-.77-3.89-.2-6.37,1.88L105.17,139.58c-5,4.17-9,12.88-9,19.36V302.71c0,3.24,1,5.33,2.66,6.1l-24-11.21c-1.63-.76-2.65-2.86-2.65-6.1V147.73c0-6.48,4.06-15.19,9-19.36L191.26,36c2.49-2.09,4.74-2.65,6.38-1.89Z"/></g><g id="box3"><path class="cls-5" d="M169.93,342c1.64.77,3.89.2,6.37-1.89l110.13-92.41c5-4.17,9-12.88,9-19.36V84.55c0-3.24-1-5.34-2.65-6.1l-24-11.21c1.64.77,2.65,2.86,2.65,6.1V217.11c0,6.48-4.06,15.19-9,19.36L152.27,328.89c-2.48,2.08-4.74,2.65-6.37,1.89Z"/><path class="cls-6" d="M293.77,78.9c-1.63-.77-3.89-.2-6.37,1.89L177.27,173.2c-5,4.17-9,12.88-9,19.36V336.33c0,3.24,1,5.34,2.65,6.1l-24-11.21c-1.63-.76-2.65-2.86-2.65-6.1V181.36c0-6.49,4.06-15.2,9-19.37L263.36,69.58c2.49-2.09,4.74-2.65,6.38-1.89Z"/></g></g></g></g></svg>